<svg width="64" height="64" viewBox="0 0 64 64" fill="none" xmlns="http://www.w3.org/2000/svg">
<g id="Group 1">
<circle id="Ellipse 1" cx="32" cy="32" r="32" fill="#D9D9D9"/>
<path id="Vector" d="M48.4588 14.2858C48.1581 14.0469 47.7371 13.9274 47.3162 14.0469L25.6065 18.7664C25.0052 18.8859 24.5241 19.4236 24.5241 20.0807V38.3615C23.4416 37.5849 22.0584 37.107 20.6151 37.107C16.9467 37.107 14 40.0343 14 43.6785C14 47.3227 16.9467 50.25 20.6151 50.25C24.2835 50.25 27.2302 47.3227 27.2302 43.6785V30.3562L46.2938 26.2341V34.6576C45.2113 33.8809 43.8282 33.403 42.3849 33.403C38.7165 33.403 35.7698 36.3303 35.7698 39.9745C35.7698 43.6187 38.7165 46.5461 42.3849 46.5461C46.0533 46.5461 49 43.6187 49 39.9745V15.3612C49 14.943 48.8196 14.5845 48.4588 14.2858ZM20.6151 47.5019C18.4502 47.5019 16.7062 45.7694 16.7062 43.6187C16.7062 41.4681 18.4502 39.7356 20.6151 39.7356C22.7801 39.7356 24.5241 41.4681 24.5241 43.6187C24.5241 45.7694 22.7801 47.5019 20.6151 47.5019ZM27.2302 21.1561L46.2938 17.0339V23.486L27.2302 27.6081V21.1561ZM42.3849 43.798C40.2199 43.798 38.4759 42.0655 38.4759 39.9148C38.4759 37.7641 40.2199 36.0316 42.3849 36.0316C44.5498 36.0316 46.2938 37.7641 46.2938 39.9148C46.2938 42.0655 44.5498 43.798 42.3849 43.798Z" fill="black"/>
</g>
</svg>
